<svg xmlns="http://www.w3.org/2000/svg" viewBox="0 0 186.49 222.63"><defs><style>.cls-1{fill:#f4ab37;}</style></defs><g id="Layer_2" data-name="Layer 2"><g id="Layer_5" data-name="Layer 5"><path class="cls-1" d="M50.74,221.19,49,197.11c-.58-8-1.38-16-1.2-24.06a105.17,105.17,0,0,1,3.51-23.26c1.86-7.44,4-14.81,6.22-22.15a164.21,164.21,0,0,1,7.67-21.18,119.1,119.1,0,0,1,9-16.21A124,124,0,0,1,98.66,63.06a120.4,120.4,0,0,1,36-20.54c1.8-.65,1-3.55-.8-2.89A126,126,0,0,0,74.6,84.38a130,130,0,0,0-18,36.07c-2.44,7.43-4.56,15-6.63,22.51a142.87,142.87,0,0,0-4.79,23.33c-1,9.12-.13,18.27.53,27.38l2,27.52c.14,1.92,3.14,1.93,3,0Z"/><path class="cls-1" d="M106.6,53.34c1.24-6.22,5.31-11.51,9.88-15.74a60.91,60.91,0,0,1,14.15-9.42c11-5.5,22.8-9,34-14a181.24,181.24,0,0,0,21.2-11.35l-2-2c-11.09,22.66-27.05,46.2-53,52.79a48.5,48.5,0,0,1-23.34.11c-1.87-.45-2.67,2.44-.8,2.9,13.68,3.31,27.74.68,39.88-6.22,11.63-6.62,20.89-16.56,28.29-27.6A176.51,176.51,0,0,0,186.33,2.29c.62-1.27-.7-2.9-2.06-2.06a181,181,0,0,1-19.51,10.58c-5.9,2.73-12,5-18,7.35-11.09,4.21-22.53,8.63-31.55,16.58-5.28,4.66-10.07,10.77-11.47,17.8-.38,1.89,2.51,2.7,2.89.8Z"/><path class="cls-1" d="M69.87,96.93c-2.83-.46-3-5.15-3.35-7.32a95.93,95.93,0,0,1-1.06-11.72,98,98,0,0,1,2.17-23.55c.41-1.89-2.48-2.69-2.89-.8a100.7,100.7,0,0,0-2.2,26.26,99.07,99.07,0,0,0,1.48,13c.52,2.87,1.73,6.52,5,7.06,1.89.31,2.7-2.58.8-2.89Z"/><path class="cls-1" d="M65.21,100.61c-11.23-6.27-12.27-22-12-33.43a46.54,46.54,0,0,1,5.36-21.06c3.1-5.82,7.12-11.09,11-16.38,4.43-6,8.81-12.06,11.73-18.94L78.56,10c.75,12.25,1.69,24.5,2.19,36.77.45,11.27,0,22.78-4.14,33.4a40.61,40.61,0,0,1-9.2,14.17c-1.38,1.35.74,3.47,2.12,2.12,17.19-16.89,14.69-43,13.35-64.93L81.56,10c-.08-1.32-2.16-2.25-2.79-.76C73.34,22.09,63,31.85,56.36,43.94a49.33,49.33,0,0,0-6.07,21.58,69.59,69.59,0,0,0,1.81,21c1.78,6.75,5.33,13.2,11.6,16.69,1.69.94,3.2-1.65,1.51-2.59Z"/><path class="cls-1" d="M70.73,99.36a65.75,65.75,0,0,0,27.92,4c1.91-.15,1.93-3.15,0-3a63.74,63.74,0,0,1-27.12-3.84c-1.81-.67-2.59,2.22-.8,2.89Z"/><path class="cls-1" d="M71.28,100.46c7.81,7.72,19.14,12.16,30.14,11,6.24-.67,11.48-3.29,16.79-6.49l19-11.44,10.66-6.43a61.85,61.85,0,0,0,9.44-6.43,1.51,1.51,0,0,0-1.06-2.56,193.78,193.78,0,0,0-67.88,12.3c-5.63,2.12-11.94,5-18,2.7-1.8-.7-2.58,2.2-.8,2.89,5.25,2,10.89.51,16-1.34,5.46-2,10.89-4,16.48-5.68a189.74,189.74,0,0,1,34.52-6.86,195.85,195.85,0,0,1,19.67-1l-1.06-2.56a52.31,52.31,0,0,1-8,5.45l-9,5.4-17.9,10.79c-5.22,3.15-10.33,6.63-16.4,7.87a32.19,32.19,0,0,1-15.44-.81A35.83,35.83,0,0,1,73.4,98.33a1.5,1.5,0,0,0-2.12,2.13Z"/><path class="cls-1" d="M46.18,152.74c-2.4,1.28-4.83-.84-6.11-2.72a49.25,49.25,0,0,1-3.93-7.34,80.31,80.31,0,0,1-5.48-16.34c-.42-1.88-3.31-1.08-2.89.8a83.68,83.68,0,0,0,6.76,19.1c1.33,2.68,2.73,5.72,5,7.74a7.17,7.17,0,0,0,8.15,1.35c1.71-.91.19-3.5-1.51-2.59Z"/><path class="cls-1" d="M48.83,154.15c3.33-10.46-3.91-19.73-9.15-28.05-5.47-8.67-8.33-18.47-10.06-28.51C28.63,91.82,28,86,27.37,80.2c-.17-1.55-2.58-2.2-2.95-.4q-2.27,11.27-3.94,22.63c-1.09,7.41-2.16,14.89-2.6,22.37-.41,6.78-.05,13.8,2.63,20.12,2.19,5.16,5.89,9.92,10.91,12.57,4.8,2.54,12.84,3.54,15.74-2.33.86-1.72-1.73-3.24-2.59-1.51-2.25,4.54-8.83,2.9-12.26.91a22.7,22.7,0,0,1-9.4-11.64c-2.3-6-2.42-12.67-2-19,.47-6.74,1.39-13.47,2.36-20.16q1.68-11.61,4-23.12l-2.94-.39c1.07,10,2.17,20.13,5,29.85a69.72,69.72,0,0,0,5.51,13.77c2.46,4.57,5.67,8.68,8.2,13.21,2.76,4.93,4.65,10.73,2.88,16.32-.59,1.85,2.3,2.64,2.89.8Z"/><path class="cls-1" d="M44.93,155.47a30.6,30.6,0,0,0,32-2.7c1.52-1.16,0-3.76-1.51-2.59a27.69,27.69,0,0,1-29,2.7c-1.71-.88-3.23,1.71-1.51,2.59Z"/><path class="cls-1" d="M51.79,157.35c4.68-.84,7.58-5,11-7.94A46.09,46.09,0,0,1,75.18,142c9.44-3.93,19.59-5.58,29.43-8.2a80,80,0,0,0,16.91-6.31l-2-2c-5.39,9.82-11.6,19.53-20.21,26.86a42.27,42.27,0,0,1-14.12,8.13c-6.39,2.09-13.2,2.37-19.88,2.27-6.33-.09-14.69-1.33-17.22-8.2-.66-1.8-3.56-1-2.9.8,2.31,6.26,8.57,9.26,14.84,10.06a67.5,67.5,0,0,0,10.64.3,63.23,63.23,0,0,0,11.06-1.2c12.15-2.56,21.88-10.7,29.33-20.29a128.87,128.87,0,0,0,11-17.22,1.51,1.51,0,0,0-2-2c-17.94,9.46-40.19,8-56.84,20.36a57.41,57.41,0,0,0-6,5.28c-1.8,1.76-3.68,3.45-6.23,3.91-1.9.34-1.09,3.23.8,2.89Z"/><path class="cls-1" d="M48.21,204.16c-5.28.42-10.86.82-15.59-2a16.26,16.26,0,0,1-7.5-10.59c-.39-1.89-3.29-1.09-2.89.8a19.27,19.27,0,0,0,8.57,12.2c5.26,3.31,11.45,3.09,17.41,2.62,1.91-.16,1.93-3.16,0-3Z"/><path class="cls-1" d="M48.41,205.64c2.3-9.95-8.16-16.73-15.12-21.52-7.95-5.48-16.45-10.89-22.18-18.84-3.61-5-5.91-10.76-8.16-16.47-.56-1.44-3.09-1.43-2.94.4a123,123,0,0,0,8.81,37.61,56.13,56.13,0,0,0,8.65,14.59c3.63,4.3,8.43,8.36,14,9.71S43.61,210.53,46,205c.77-1.76-1.81-3.29-2.59-1.52-1.94,4.45-7.14,5.79-11.53,4.61-5.07-1.36-9.29-5.19-12.56-9.14-6.88-8.29-10.44-19.17-13-29.47A126.56,126.56,0,0,1,3,149.21l-2.95.4a93.49,93.49,0,0,0,6.65,14.45,48.31,48.31,0,0,0,9.23,10.88,115.49,115.49,0,0,0,11.45,8.75A140.4,140.4,0,0,1,39,192c3.68,3.13,7.77,7.67,6.55,12.89-.43,1.88,2.46,2.68,2.9.8Z"/><path class="cls-1" d="M47.8,207.72A12.66,12.66,0,0,0,58,206.65c3.15-1.67,5.66-4.3,8.08-6.86,1.32-1.4-.79-3.52-2.12-2.12-3.87,4.09-9.18,9.5-15.39,7.15a1.51,1.51,0,0,0-1.84,1.05,1.53,1.53,0,0,0,1,1.85Z"/><path class="cls-1" d="M50.31,204.73c-.37-4.39,2-8.22,5.19-11,3.7-3.23,8.5-4.75,13.12-6.13a85.49,85.49,0,0,0,14.13-5.21,83.62,83.62,0,0,0,12.56-8c4.5-3.4,8.78-7.09,13-10.79l-2.51-1.46-7.54,18C96,185.61,94,191.3,91,196.45a27.19,27.19,0,0,1-11.44,10.89,54.45,54.45,0,0,1-16.08,5.14c-5.42.86-12.76-.1-15.12-5.94-.71-1.77-3.61-1-2.89.79,2.12,5.25,7.37,8,12.83,8.41a31.9,31.9,0,0,0,9.9-1.2A68.37,68.37,0,0,0,77,211.77c5.46-2.18,10.46-5.28,14.07-10,3.77-4.92,5.93-10.84,8.29-16.49l9.35-22.37c.64-1.52-1.5-2.33-2.5-1.46-7.79,6.78-15.71,13.63-25,18.31-4.7,2.37-9.68,3.75-14.69,5.29-4.71,1.45-9.4,3.23-13.16,6.52s-6.5,8-6.07,13.15c.16,1.91,3.17,1.93,3,0Z"/></g></g></svg>