<svg xmlns="http://www.w3.org/2000/svg" viewBox="0 0 88.57 231.99"><defs><style>.cls-1{fill:#f4ab37;}</style></defs><g id="Layer_2" data-name="Layer 2"><g id="Layer_3" data-name="Layer 3"><path class="cls-1" d="M43,19C50,13.47,57.37,8.28,64.56,2.88c1.53-1.14,0-3.75-1.51-2.59-7.4,5.56-14.95,10.9-22.21,16.63a1.51,1.51,0,0,0,0,2.12A1.54,1.54,0,0,0,43,19Z"/><path class="cls-1" d="M62.75,2.65C68.6,9.94,75.27,16.72,80,24.85a39.49,39.49,0,0,1,4.77,12.4,58.74,58.74,0,0,1,.57,14.39A52.23,52.23,0,0,1,78,75.34a52.17,52.17,0,0,1-8.19,10.78,58,58,0,0,1-12,8.8c-8.13,4.6-17.17,7.5-24.55,13.4A23.46,23.46,0,0,0,26,117.7a34.15,34.15,0,0,0-2.54,12.18,26,26,0,0,0,2.07,11.63c2.14,4.62,6,8.29,8.73,12.56a48.2,48.2,0,0,1,7.64,24.71,68.63,68.63,0,0,1-4.35,26.84c-3,7.83-7.87,15.42-14.74,20.41a33.69,33.69,0,0,1-5.4,3.18l1.82.23c-5.57-5.49-11-11.11-16.62-16.53l-.67,2.51a32.26,32.26,0,0,0,16.34-12.9c4.1-6.15,7.07-14,7.31-21.43a25.93,25.93,0,0,0-2-11.22,52.89,52.89,0,0,0-5.81-9.4c-4.63-6.39-9.11-12.7-11.87-20.17-2.81-7.62-4-16-1.82-23.93,2.09-7.7,7.69-13.78,14-18.43,7.38-5.46,15.78-9.35,23.2-14.75A77.15,77.15,0,0,0,59.13,65.07a27.37,27.37,0,0,0,5.12-11.52A26.12,26.12,0,0,0,63,41.28c-2.78-8.15-8.72-14.55-15.08-20.13-1.64-1.44-3.31-2.83-5-4.23-1.48-1.23-3.61.88-2.13,2.12C47.26,24.41,54,30,58.06,37.43A26.85,26.85,0,0,1,61.51,49a20.71,20.71,0,0,1-3.1,11.64,68.69,68.69,0,0,1-16.88,18.6C34.48,84.77,26.36,88.63,19,93.64c-6.32,4.29-12.34,9.64-15.76,16.59S-.67,125.48.79,133.12a60.75,60.75,0,0,0,9.64,22.26c1.91,2.82,4,5.5,6,8.29s4,5.74,5.08,9c2.44,7.35.53,15.57-2.56,22.41-2.82,6.24-7.12,11.89-13.12,15.34a26.3,26.3,0,0,1-4.69,2.11A1.52,1.52,0,0,0,.46,215c5.64,5.42,11.06,11.05,16.63,16.54a1.54,1.54,0,0,0,1.81.23c16.37-7.72,24.17-26.84,25.68-43.89.81-9.12.17-18.41-3.36-26.94a56,56,0,0,0-6.95-12.11c-2.91-3.89-6.18-7.43-7.27-12.3a29.5,29.5,0,0,1,.09-12.27c.79-3.85,2.21-7.77,4.89-10.72,6.29-7,15.69-10.15,23.86-14.23a68.75,68.75,0,0,0,12.78-8.19,49.71,49.71,0,0,0,9.71-10.81,56.2,56.2,0,0,0,9.41-23.15C89.13,47.94,89,37.77,85.4,29S75.5,13.21,69.49,6.11c-1.56-1.84-3.11-3.7-4.62-5.58-1.21-1.51-3.32.62-2.12,2.12Z"/></g></g></svg>