<svg xmlns="http://www.w3.org/2000/svg" viewBox="0 0 115.19 100.95"><defs><style>.cls-1{fill:#f4ab37;}</style></defs><g id="Layer_2" data-name="Layer 2"><g id="Layer_4" data-name="Layer 4"><path class="cls-1" d="M21.35,10.72c-9,7-16.78,16-19.92,27.1A40.29,40.29,0,0,0,3.59,65C7.42,73.79,14,81.27,21.53,87.1a67.72,67.72,0,0,0,27,12.51,56.05,56.05,0,0,0,29.9-1.48c10.9-3.78,19.82-11.21,26.48-20.53,7.33-10.25,11.77-22.66,9.85-35.34-1.64-10.85-8-20.51-16.32-27.47A64.77,64.77,0,0,0,66.49.72,64.45,64.45,0,0,0,29.92,5.81a59.57,59.57,0,0,0-8.27,4.68c-1.59,1.07-.09,3.67,1.52,2.59A59.72,59.72,0,0,1,57.46,3a63.85,63.85,0,0,1,32.37,9.3C98.7,17.74,106.36,25.76,110,35.66c3.86,10.64,2.43,22.1-2.6,32.1C102.15,78.16,94,87.34,83.55,92.7a50.5,50.5,0,0,1-27.95,5,63.28,63.28,0,0,1-26.75-9.2A58.9,58.9,0,0,1,9.26,69.35a39.92,39.92,0,0,1-6.14-24.5c1-10,6.4-18.94,13.4-25.93a74.2,74.2,0,0,1,7-6.07c1.52-1.19-.61-3.29-2.12-2.13Z"/><path class="cls-1" d="M31.89,21.18C26,27.57,21.66,35.31,20.59,44a33.79,33.79,0,0,0,4.26,20.68A40,40,0,0,0,61.79,84.4a40.81,40.81,0,0,0,23.35-9.21c6.21-5.27,11.64-12.11,13.5-20.2,3.17-13.84-5.34-26.57-16.81-33.6a48.53,48.53,0,0,0-44.15-3.27A46.52,46.52,0,0,0,32.2,21a1.5,1.5,0,0,0,1.51,2.59,45.11,45.11,0,0,1,41.83-2.11c11,5.08,21.17,15.33,20.79,28.24-.21,7-3.63,13.34-8.19,18.44A38.74,38.74,0,0,1,67,80.67a37.22,37.22,0,0,1-36.8-13.39,31.84,31.84,0,0,1-6.78-17.9,34.15,34.15,0,0,1,6.47-20.91A49,49,0,0,1,34,23.3c1.31-1.42-.81-3.54-2.12-2.12Z"/></g></g></svg>