<svg xmlns="http://www.w3.org/2000/svg" viewBox="0 0 125.53 182.42"><defs><style>.cls-1{fill:#3d6eff;}</style></defs><g id="Layer_2" data-name="Layer 2"><g id="Layer_6" data-name="Layer 6"><path class="cls-1" d="M29.83,137.41c2.77-24.47,8.23-49,19.18-71.2,9.74-19.76,24-37.44,42.56-49.57A94.17,94.17,0,0,1,124.45,2.93c1.89-.38,1.09-3.28-.79-2.9C102.14,4.38,82.91,16.68,68.15,32.7,51.82,50.41,41.2,72.54,34.71,95.59a264,264,0,0,0-7.88,41.82c-.21,1.91,2.79,1.9,3,0Z"/><path class="cls-1" d="M91.32,13.17c-6-6.06-14.8-7.94-23-6.84C58.92,7.59,50,12.14,42.09,17.19a1.52,1.52,0,0,0,0,2.59c4.09,2.67,8.12,5.77,12.54,7.87a22.31,22.31,0,0,0,13.24,1.68c9.32-1.5,16.76-7.78,23.71-13.71,1.47-1.26-.66-3.37-2.12-2.13C83,19,76.13,24.82,67.5,26.36a18.93,18.93,0,0,1-12.14-1.7,134.68,134.68,0,0,1-11.75-7.47v2.59c7.33-4.69,15.51-8.93,24.18-10.37,7.55-1.24,15.89.26,21.41,5.88,1.35,1.38,3.47-.75,2.12-2.12Z"/><path class="cls-1" d="M51.9,62.12c2.06,3,4.42,6,6.17,9.26s1.19,7.56,1.11,11.11q-.13,5.7-.69,11.37c-.18,1.8-.35,3.62-.64,5.4a7.26,7.26,0,0,1-1.68,4.08H58.3c-5.77-5.42-8.5-13-9.84-20.67-1.16-6.6-2.45-15.75,3-20.84,1.41-1.32-.71-3.43-2.13-2.12C44.64,64.1,44.18,71,44.72,77A55.24,55.24,0,0,0,49.6,96.42a31.09,31.09,0,0,0,6.57,9,1.55,1.55,0,0,0,2.13,0c2.52-2.6,2.64-6.49,3-9.89Q62,89.31,62.16,83c.11-3.83.6-8.28-.92-11.9a31.32,31.32,0,0,0-3.14-5.16L54.49,60.6c-1.08-1.59-3.68-.09-2.59,1.52Z"/><path class="cls-1" d="M32.49,101.06c-4-.28-8-.47-11.82,1.06a26.53,26.53,0,0,0-8.78,6.41A43.1,43.1,0,0,0,1.61,126.47,38.31,38.31,0,0,0,0,136.88c0,4.13,4.34,3.44,7,2.36,6.24-2.5,10.15-8.42,13.72-13.81,5-7.51,9.85-15.12,13.17-23.54.7-1.79-2.2-2.57-2.9-.79a106.17,106.17,0,0,1-10.1,18.63c-3.27,5-6.46,10.75-11.24,14.53a14.85,14.85,0,0,1-3.32,2,11.91,11.91,0,0,1-1.65.57,9.56,9.56,0,0,1-1.06.24,2.88,2.88,0,0,1-.59.06c-.26,0-.29,0-.07,0-.19-.29,0-1.57.07-1.91.06-.79.13-1.59.24-2.38a40.42,40.42,0,0,1,9.36-20.79,27.37,27.37,0,0,1,8.21-6.82c3.63-1.79,7.69-1.52,11.61-1.24,1.93.14,1.92-2.86,0-3Z"/><path class="cls-1" d="M27.81,136.13c-1.77,0-2.85,1.29-3.55,2.78-.94,2-1.75,4.09-2.54,6.16A63.67,63.67,0,0,0,17.93,158a22.7,22.7,0,0,0,1.24,12.1c1.43,3.52,3.55,7,3.51,10.89A1.51,1.51,0,0,0,25.24,182a30.39,30.39,0,0,0,7.16-10.19,23.58,23.58,0,0,0,1.2-6.61c.19-2.28.37-4.56.56-6.84.66-8.13,1-17.44-6.11-23A1.5,1.5,0,1,0,26.53,138c6.23,4.8,5.15,14,4.59,20.83l-.48,5.9a22.63,22.63,0,0,1-1,5.89c-1.27,3.53-3.92,6.65-6.54,9.26l2.57,1.06c0-3.43-1.33-6.52-2.7-9.59a22,22,0,0,1-2.35-10.71,43.82,43.82,0,0,1,2.75-11.37c.66-1.9,1.36-3.78,2.12-5.65.37-.92.75-1.84,1.15-2.76.19-.41.61-1.73,1.16-1.73a1.5,1.5,0,0,0,0-3Z"/></g></g></svg>