<svg xmlns="http://www.w3.org/2000/svg" viewBox="0 0 142.3 217.81"><defs><style>.cls-1{fill:#3d6eff;}</style></defs><g id="Layer_2" data-name="Layer 2"><g id="Layer_7" data-name="Layer 7"><path class="cls-1" d="M81.64,217.53A46.26,46.26,0,0,1,94,183.13c4.5-5,9.57-9.44,14.46-14L124,154.42l17.81-16.72-2.35-1.81a146.84,146.84,0,0,0-9.17,19c-2.57,6.47-4.31,13.16-6.47,19.76A43.09,43.09,0,0,1,114.25,191a73.77,73.77,0,0,1-15.12,12.09,94.6,94.6,0,0,1-20.54,9.58c-1.83.59-1,3.49.79,2.89,12.68-4.15,25-10.84,34.68-20.1a47,47,0,0,0,11.1-15.67c2.73-6.54,4.16-13.57,6.59-20.24a141.58,141.58,0,0,1,10.34-22.15,1.51,1.51,0,0,0-2.36-1.82L107.38,166c-9.76,9.16-20.44,17.94-25.51,30.71a47.83,47.83,0,0,0-3.23,20.87c.13,1.91,3.13,1.93,3,0Z" transform="translate(0 -1.15)"/><path class="cls-1" d="M80.25,216.09c2.63-14.14,5.24-28.39,5.64-42.8A110.54,110.54,0,0,0,84.54,152,110,110,0,0,0,79.2,132.6c-4.64-12.82-10.46-25.33-12.4-38.94A82.45,82.45,0,0,1,71.44,53.1c5.26-14,13.72-26.53,22.19-38.73l-2.79-.76c-1.6,12.57-3.2,25.19-3.1,37.89a116.08,116.08,0,0,0,1.57,18.61,166.72,166.72,0,0,0,4.58,18.28,170.86,170.86,0,0,1,4.51,17.82A106.23,106.23,0,0,1,100,123.55a136.1,136.1,0,0,1-4.29,34.62,207.17,207.17,0,0,1-13.57,37.45c-.82,1.73,1.77,3.26,2.59,1.51,10-21.39,17.46-44.47,18.22-68.23A117.29,117.29,0,0,0,98.5,93.55c-1.71-6.12-3.65-12.18-5.1-18.37a102.69,102.69,0,0,1-2.53-18.63c-.66-14.37,1.15-28.71,3-42.94.2-1.62-2-1.83-2.8-.76-7.56,10.9-15,22-20.35,34.2a87.47,87.47,0,0,0-7.53,40,87.6,87.6,0,0,0,3.67,20.37c2,6.51,4.48,12.83,6.92,19.17a166.23,166.23,0,0,1,6.47,19.3,95.64,95.64,0,0,1,2.7,21.18c.34,16.24-2.61,32.3-5.56,48.2-.35,1.89,2.54,2.7,2.89.8Z" transform="translate(0 -1.15)"/><path class="cls-1" d="M81.93,215.35a81.56,81.56,0,0,0-24.38-39c-6.16-5.5-12.65-10.55-18.39-16.52a129.58,129.58,0,0,1-14.09-17.5A131.43,131.43,0,0,1,6.82,101.49,128.75,128.75,0,0,1,4,54.32,130.41,130.41,0,0,1,18.52,8.63c1-1.76,1.95-3.5,3-5.22L18.76,2.25a303.16,303.16,0,0,0-5.2,48.45c-.39,15.18,0,30.9,5.91,45.14,5.08,12.28,13.37,22.76,21.76,32.93,8.85,10.71,17.64,21.35,24.09,33.74A125,125,0,0,1,78.93,209.1c.17,1.9,3.17,1.92,3,0a129.21,129.21,0,0,0-11-41.84,125,125,0,0,0-10.4-18.6c-3.78-5.58-8-10.86-12.29-16.07C39.86,122.37,31,112.29,24.9,100.45c-6.92-13.36-8.47-28.14-8.43-43A295.67,295.67,0,0,1,21.66,3.05a1.51,1.51,0,0,0-2.74-1.16,131.94,131.94,0,0,0-.4,135.69,137.3,137.3,0,0,0,30,35c6.37,5.36,12.63,10.76,17.66,17.45A78,78,0,0,1,77.3,210.65c.65,1.81,1.22,3.65,1.73,5.5a1.51,1.51,0,0,0,2.9-.8Z" transform="translate(0 -1.15)"/></g></g></svg>