<svg xmlns="http://www.w3.org/2000/svg" viewBox="0 0 70.5 145.32"><defs><style>.cls-1{fill:#f4ab37;}</style></defs><g id="Layer_2" data-name="Layer 2"><g id="Layer_8" data-name="Layer 8"><path class="cls-1" d="M3,144.05A164.7,164.7,0,0,1,31.66,48.67c1.09-1.6-1.51-3.1-2.59-1.51A168.62,168.62,0,0,0,1.21,121.54,162.87,162.87,0,0,0,0,144.05c0,1.93,3,1.94,3,0Z" transform="translate(0 -0.18)"/><path class="cls-1" d="M5.17,118.38c2.91-6.75,8.28-11.79,13.79-16.47s11.48-9.33,15.86-15.32c5.43-7.41,8.39-16.44,11.76-24.9l11.17-28L70.38,2C71,.42,68.89-.3,67.88.52l-22.1,17.7c-7.13,5.72-14.39,11.3-21.37,17.2a54.39,54.39,0,0,0-8.74,9A49.22,49.22,0,0,0,9.92,54.91,110.78,110.78,0,0,0,3.34,80.12a144.4,144.4,0,0,0-1.49,30.53c.12,1.92,3.12,1.93,3,0-1-17.3.9-35.33,6.72-51.72A52.31,52.31,0,0,1,16.8,48.06,45.24,45.24,0,0,1,25,38.85C31.67,33,38.84,27.61,45.77,22.05L70,2.64,67.49,1.18,45.26,57c-1.8,4.5-3.57,9-5.4,13.52a76.79,76.79,0,0,1-6,12.21c-4,6.37-9.92,11.13-15.63,15.93-6.16,5.17-12.4,10.7-15.65,18.24-.76,1.76,1.82,3.29,2.59,1.52Z" transform="translate(0 -0.18)"/></g></g></svg>