<svg xmlns="http://www.w3.org/2000/svg" viewBox="0 0 500 500"><defs><style>.cls-1{fill:#415b36;opacity:0.77;}.cls-2{fill:#8ba77a;}.cls-3{font-size:103.76px;font-family:Photoshoot-Regular, Photoshoot;letter-spacing:-0.01em;}.cls-3,.cls-4{fill:#fff;}.cls-3,.cls-5{stroke:#fff;stroke-miterlimit:10;}.cls-5{fill:none;stroke-width:2px;}</style></defs><g id="Layer_2" data-name="Layer 2"><g id="logo_back" data-name="logo back"><rect class="cls-1" width="500" height="500"/></g><g id="Layer_24" data-name="Layer 24"><path class="cls-2" d="M353.86,80.35c32.68,23.11,58.72,55.53,73.07,93.52,14.08,38,16.21,81,7.7,124.87-8.76,43.58-28.16,87.95-61.9,120.89s-81.83,54.74-123.55,46-77.05-48.09-111.06-81S71.7,325.05,62.67,292.1c-8.77-32.94,5.84-72.27,21-109.46,14.88-37.2,30-72.27,56.59-97.25s64.56-40.12,103.09-40.91S321.18,57.23,353.86,80.35Z"/></g><g id="txt_logo" data-name="txt logo"><text class="cls-3" transform="translate(182.18 303.8) scale(1.16 1)">G</text></g><g id="DRAW_logo" data-name="DRAW logo"><path class="cls-4" d="M408.62,322.06a72,72,0,0,0,.9-16.33,15.92,15.92,0,0,0-1.83-7,36.47,36.47,0,0,0-4.28-5.55c-6.79-7.94-13.2-16.51-16.79-26.42a44.71,44.71,0,0,1-2.77-17.63c.06-1-1.4-.94-1.5,0-1.45,14.29-3.12,28.57-4.35,42.88-1,11.6-.27,25.84,10.19,33.27,4.85,3.45,11.26,4.59,16.8,2.21.88-.38.12-1.67-.76-1.29-5,2.16-10.92.9-15.28-2.21s-7.25-8.42-8.61-13.68c-1.61-6.2-1.34-12.7-.77-19,.58-6.52,1.31-13,2-19.55l2.3-22.61h-1.5c-.57,10.19,2.83,20.12,8,28.8a103.39,103.39,0,0,0,8.6,12.19c1.63,2,3.32,4,5,5.93a15.61,15.61,0,0,1,3.75,6.69,38.81,38.81,0,0,1,.48,9.2,72.93,72.93,0,0,1-.94,9.68c-.16.94,1.28,1.35,1.44.4Z"/><path class="cls-4" d="M421.6,284.81a72.42,72.42,0,0,1,1.3-15.35,32.31,32.31,0,0,1,6.32-13,75.72,75.72,0,0,1,9.73-9.72c3.76-3.27,7.54-6.51,11.2-9.9q6.66-6.18,12.92-12.78l-1.18-.15c1.44,2.12-.7,5.25-1.6,7.21l-3.3,7.2-6.8,14.85c-2.2,4.81-4.34,9.66-6.64,14.43-2,4.16-4.34,8.34-7.8,11.49-3.77,3.43-9.06,5.55-14.14,4.18a.75.75,0,0,0-.4,1.45,16.17,16.17,0,0,0,13.12-2.63c4.06-2.73,6.92-6.83,9.19-11.1,2.63-5,4.81-10.17,7.14-15.26l7.52-16.43,4.23-9.22c1-2.13,2.27-4.73.78-6.92A.76.76,0,0,0,462,223c-7.44,7.83-15.35,15.09-23.51,22.15-7.11,6.16-14,12.88-16.61,22.22-1.58,5.67-1.73,11.62-1.79,17.47a.75.75,0,0,0,1.5,0Z"/><path class="cls-4" d="M422.05,220.12c-.34-7.59-5.09-14.07-10.92-18.57-6.83-5.28-15-8.27-22.36-12.7A37.74,37.74,0,0,1,378,179.71c-.48-.63-1.62-.3-1.37.58,4.65,16.84,10.75,36.71,28.49,44a32,32,0,0,0,15.45,2.17c.95-.1,1-1.6,0-1.5a31.21,31.21,0,0,1-24.37-8.12c-6.39-5.84-10.53-13.63-13.47-21.67-1.82-5-3.24-10.12-4.66-15.24l-1.37.58c4.82,6.29,11.78,10.17,18.73,13.69,7.27,3.68,15,7.32,20.2,13.81a21.08,21.08,0,0,1,4.93,12.15c0,1,1.54,1,1.5,0Z"/><path class="cls-4" d="M409.35,177.61c-5.09-8.9-8.33-19.14-7.71-29.48.61-10.07,5.6-18.75,10.08-27.53a69.44,69.44,0,0,0,6-15l-1.47-.2c-2,17.49,1.26,35.78-5.07,52.62a39.25,39.25,0,0,1-6.85,11.81c-.62.73.44,1.79,1.07,1.06C417,157.35,416.83,138.71,417,121.94a158.05,158.05,0,0,1,.79-16.57c.09-.85-1.28-1-1.47-.2-2.4,9.83-8.25,18.24-12.22,27.44a43.87,43.87,0,0,0-2.62,29.44,62.19,62.19,0,0,0,6.6,16.32c.47.84,1.77.08,1.29-.76Z"/><path class="cls-4" d="M375.4,129.75c-4-5.1-11.12-5.63-17-4.48-3.91.76-7.67,2.14-11.55,3a58.42,58.42,0,0,1-12.37,1.33c-4.64.05-9.28-.28-13.91-.6a.75.75,0,0,0-.53,1.28c6.84,5.67,13.87,11,22.88,12.44a37.55,37.55,0,0,0,22.41-3.49,34.19,34.19,0,0,0,10.32-7.89c.64-.72-.42-1.79-1.06-1.06-9.81,11.08-27.14,14.7-40.48,8.12-4.79-2.37-8.93-5.79-13-9.18l-.53,1.28c9.88.69,19.74,1.18,29.4-1.48,7.66-2.11,18.41-5.86,24.41,1.76.6.75,1.65-.31,1.06-1.06Z"/><path class="cls-4" d="M337.67,98.91a23.47,23.47,0,0,1-11.13-14.34c-1.72-6.54-.8-13.93-5.5-19.38l-.73,1.25A23.71,23.71,0,0,1,334.08,78c3.43,6.29,4.17,13.66,3.4,20.69-.1,1,1.4,1,1.5,0,.81-7.41-.09-15.2-3.79-21.78A25.12,25.12,0,0,0,320.71,65a.75.75,0,0,0-.73,1.25c4.87,5.65,3.33,13.88,5.66,20.52a25.09,25.09,0,0,0,11.27,13.43c.84.48,1.6-.82.76-1.29Z"/><path class="cls-4" d="M296.64,82.42c-1.58.22-3.16-.14-4.75-.07a6.47,6.47,0,0,0-3.66,1.29,39.8,39.8,0,0,0-6.42,6c-3.22,3.76-5.22,9-9.95,11.2-.72.33-.3,1.37.38,1.4a75.05,75.05,0,0,0,9,.33c2.48-.19,4.24-2.23,5.77-4,3.54-4.07,6-8.94,8.35-13.74.43-.86-.87-1.63-1.29-.76-2.2,4.44-4.42,9-7.58,12.81-1.5,1.83-3.3,4.17-5.85,4.21-2.79,0-5.61-.23-8.39-.35l.38,1.4c4.46-2,6.56-6.67,9.38-10.37a42.43,42.43,0,0,1,6.33-6.31,6,6,0,0,1,4.42-1.63,24.59,24.59,0,0,0,4.29,0c.95-.14.55-1.58-.4-1.45Z"/><path class="cls-4" d="M264.26,76.25a9.75,9.75,0,0,0-.81-6.52A9.55,9.55,0,0,0,258,65.31c-2.73-1-5.54-1.76-8.23-2.89a60.11,60.11,0,0,1-8.28-4.29.75.75,0,0,0-1,1c2.38,4.12,4.85,8.36,8.54,11.46s8.12,4.84,12.5,6.57c.9.36,1.29-1.09.4-1.44-4.24-1.68-8.64-3.41-12.13-6.44s-5.76-7-8-10.91l-1,1A62.27,62.27,0,0,0,255.22,66c2.3.71,4.74,1.44,6.26,3.44a8,8,0,0,1,1.33,6.46c-.2.94,1.25,1.34,1.45.39Z"/><path class="cls-4" d="M365.84,379.61c3.1-8.44,4.71-17.64,3-26.57s-6.79-16.73-10.11-25.12a37.1,37.1,0,0,1-3.07-15.15.75.75,0,0,0-1.47-.19c-2.67,10.69-5.36,21.4-7.19,32.28a108.8,108.8,0,0,0-1.65,15.81c-.11,5.14.16,10.47,2,15.33a18.83,18.83,0,0,0,8.83,10.38c.86.43,1.62-.86.76-1.3-8.86-4.45-10.28-15.3-10.11-24.17.2-10.38,2.36-20.67,4.64-30.76,1.3-5.74,2.73-11.46,4.16-17.18l-1.48-.2c-.35,8.88,3.58,17,7.31,24.82a80.78,80.78,0,0,1,5.19,12.77,39.48,39.48,0,0,1,1.27,13.6,56.9,56.9,0,0,1-3.52,15.26c-.33.9,1.11,1.29,1.45.39Z"/><path class="cls-4" d="M332.66,405.22c7.78-4.78,17.11-1.89,25.36-.25a56.44,56.44,0,0,0,24.64-.45,55.46,55.46,0,0,0,13.12-5.13l-1-1c-4,9.05-11.09,17-20.5,20.55a30.06,30.06,0,0,1-15.42,1.75c-5.23-.85-10.2-3.23-14.89-5.62s-9.13-5.33-11.32-10.2c-.4-.88-1.69-.11-1.29.76,2,4.41,5.89,7.44,10,9.75a59.58,59.58,0,0,0,15.41,6.42c10.47,2.38,21.45-1.33,29.24-8.47a43,43,0,0,0,10.05-14.18.76.76,0,0,0-1-1,53.76,53.76,0,0,1-24.41,6.55,57.6,57.6,0,0,1-13.15-1.31c-4.26-.88-8.51-2-12.88-2.19a21.89,21.89,0,0,0-12.69,2.78c-.82.5-.07,1.8.76,1.3Z"/><path class="cls-4" d="M394.48,349.85a35.72,35.72,0,0,1,21.87-13.5c4.7-.88,9.3-.47,14,.06,4.92.56,9.61.6,14.29-1.21,4.85-1.87,9.3-4.81,14.5-5.66l-.85-1.1q-5.13,7.1-10.84,13.72c-3.53,4.09-7.28,7.94-12,10.66a48.25,48.25,0,0,1-14.34,5.23,78,78,0,0,1-15.52,1.79c-2.93,0-6-.47-8.3-2.38a10.2,10.2,0,0,1-3.7-6.94c-.09-1-1.59-1-1.5,0a11.65,11.65,0,0,0,8.4,10.22,24.73,24.73,0,0,0,8.58.43c2.71-.21,5.42-.49,8.1-.9A58.59,58.59,0,0,0,433,355.82a42,42,0,0,0,13.36-10.1A185,185,0,0,0,459.6,329.2c.43-.59-.28-1.19-.85-1.1-4.65.75-8.71,3.17-13,5a23.93,23.93,0,0,1-7.49,2.11,39,39,0,0,1-7.93-.32c-4.79-.54-9.44-.91-14.22,0A37.41,37.41,0,0,0,404,339.42a36.73,36.73,0,0,0-10.79,9.68c-.58.77.72,1.52,1.3.75Z"/></g><g id="white_circ" data-name="white circ"><circle class="cls-5" cx="250" cy="250" r="173.61"/></g></g></svg>